<svg width="400" height="300" xmlns="http://www.w3.org/2000/svg">
 <metadata id="metadata8">image/svg+xml</metadata>

 <g>
  <title>background</title>
  <rect fill="none" id="canvas_background" height="302" width="402" y="-1" x="-1"/>
 </g>
 <g>
  <title>Layer 1</title>
  <g transform="matrix(3.24164, 0, 0, -3.3175, -532.938, 1730.11)" id="g10">
   <g transform="translate(0, -1.13687e-13) scale(0.1)" id="g12">
    <path fill="#c0e4f8" fill-rule="nonzero" id="path678" d="m1832.98999,4646.399902c0,-9.390137 0,-33.919922 0,-45.180176c10.209961,11.5 20.660034,21.97998 31.22998,31.540039c0,-39.029785 0,-78.060059 0,-117.100098c23.51001,21.340332 48.099976,38.960449 72.77002,53.820313c0,20.819824 0,41.640137 0,62.449707c17.369995,10.530273 34.97998,19.810059 52.640015,28.02002c0,-29.040039 0,-58.07959 0,-87.129883c14.959961,6.930176 30.01001,13.160156 45.079956,18.740234c0,-24.450195 0,-48.900391 0,-73.360352c24.080078,8.890137 48.360107,16.130371 72.669922,21.880371c0,49.439941 0,98.879883 0,148.32959c10.940186,2.530273 21.880127,4.870117 32.830078,6.890137c0,-76.709961 0,-153.429688 0,-230.129883c11.630127,2.140137 23.26001,4.009766 34.900146,5.450195c0,-19.570313 0,-39.140137 0,-58.700195c34.579834,4.589844 69.329834,6.189941 103.889893,5.189941c0,31.72998 0,63.450195 0,95.180176c14.590088,-0.52002 29.179932,-1.399902 43.73999,-2.75c0,63.339844 0,126.659668 0,190c9.620117,-1.060059 19.25,-2.100098 28.860107,-3.47998c0,-59.290039 0,-118.590332 0,-177.880371c27.899902,-4.02002 55.779785,-9.959961 83.319824,-18.149902c0,31.850098 0,63.709961 0,95.560059c17.030029,-4.939941 33.930176,-11.040039 50.719971,-17.899902c0,32.22998 0,64.459961 0,96.689941c22.640137,-9.350098 45.220215,-20.540039 67.140137,-34.299805c0.050049,-15.330078 0.129883,-30.67041 0.179932,-46.010254c23.830078,-14.719727 47.669922,-32.759766 69.75,-55.949707c-0.090088,31.299805 -0.25,67.739746 -0.349854,99.039551c16.48999,-17.05957 34.289795,-23.099609 47.209961,-41.049805c-0.110107,21.790039 -0.25,48.850098 -0.25,68.760254c-125.830078,110.849609 -680.080078,145.359863 -836.330078,-18.470215"/>
    <path fill="#214b87" fill-rule="nonzero" id="path680" d="m2259.320068,4387.919922c-259.959961,0 -470.709961,76.859863 -470.709961,171.649902c0,94.800293 210.75,171.660156 470.709961,171.660156c259.97998,0 470.719971,-76.859863 470.719971,-171.660156c0,-94.790039 -210.73999,-171.649902 -470.719971,-171.649902zm385.25,400.390137l0,33.759766l-31.22998,0l0,117.100098l-72.77002,0l0,-62.450195l-52.649902,0l0,87.130371l-45.070068,0l0,73.359863l-72.669922,0l0,-148.330078l-32.840088,0l0,230.140137l-34.899902,0l0,58.689941l-103.890137,0l0,-95.169922l-43.75,0l0,-189.990234l-28.850098,0l0,177.879883l-83.309937,0l0,-95.549805l-50.73999,0l0,-96.700195l-67.130005,0l-0.179932,45.890137l-69.76001,-0.27002l0.369995,-93.509766l-47.209961,-0.180176l0.25,-64.839844c-77.790039,-42.470215 -124.430054,-96.340332 -124.430054,-155.010254c0,-136.97998 253.650024,-248.02002 566.560059,-248.02002c312.889893,0 566.540039,111.040039 566.540039,248.02002c0,69.890137 -66.110107,132.970215 -172.340088,178.050293"/>
   </g>
  </g>
 </g>
</svg>